<?xml version="1.0" encoding="UTF-8" standalone="no"?>
<svg width="512" height="512" viewBox="0 0 512 512" fill="none" xmlns="http://www.w3.org/2000/svg">
  <rect width="512" height="512" rx="100" fill="#2C6ECB"/>
  <path d="M256 100C171.2 100 102 169.2 102 254C102 338.8 171.2 408 256 408C340.8 408 410 338.8 410 254C410 169.2 340.8 100 256 100Z" fill="white"/>
  <path d="M256 140C193.2 140 142 191.2 142 254C142 316.8 193.2 368 256 368C318.8 368 370 316.8 370 254C370 191.2 318.8 140 256 140Z" fill="#2C6ECB"/>
  <rect x="226" y="174" width="60" height="160" rx="10" fill="white"/>
  <rect x="176" y="224" width="160" height="60" rx="10" fill="white"/>
</svg>
